<mxfile host="app.diagrams.net" modified="2023-10-20T04:44:03.288Z" agent="Mozilla/5.0 (Macintosh; Intel Mac OS X 10_15_7) AppleWebKit/537.36 (KHTML, like Gecko) Chrome/118.0.0.0 Safari/537.36" version="22.0.5" etag="f3vMxvyfHIG6YiFHGQZI" type="github">
  <diagram name="第 1 页" id="LH6HTJGZ1KWTFvOJg4Ma">
    <mxGraphModel>
      <root>
        <mxCell id="0" />
        <mxCell id="1" parent="0" />
      </root>
    </mxGraphModel>
  </diagram>
</mxfile>
